<svg xmlns="http://www.w3.org/2000/svg" fill="none" viewBox="0 0 48 48">
    <path stroke-linejoin="round" stroke-linecap="round" stroke-width="3" stroke="currentColor"
          d="M24 44c11.046 0 20-8.954 20-20S35.046 4 24 4 4 12.954 4 24s8.954 20 20 20Z" data-follow-stroke="#515a6e"/>
    <path d="M31 7v17V7Z" clip-rule="evenodd"/>
    <path stroke-linejoin="round" stroke-linecap="round" stroke-width="3" stroke="currentColor" d="M31 7v17"
          data-follow-stroke="#515a6e"/>
    <path d="m16.636 6.636 14.142 14.142L16.636 6.636Z" clip-rule="evenodd"/>
    <path stroke-linejoin="round" stroke-linecap="round" stroke-width="3" stroke="currentColor"
          d="m16.636 6.636 14.142 14.142" data-follow-stroke="#515a6e"/>
    <path d="M7 17h17H7Z" clip-rule="evenodd"/>
    <path stroke-linejoin="round" stroke-linecap="round" stroke-width="3" stroke="currentColor" d="M7 17h17"
          data-follow-stroke="#515a6e"/>
    <path d="M20.364 17.636 6.222 31.778l14.142-14.142Z" clip-rule="evenodd"/>
    <path stroke-linejoin="round" stroke-linecap="round" stroke-width="3" stroke="currentColor"
          d="M20.364 17.636 6.222 31.778" data-follow-stroke="#515a6e"/>
    <path d="M17 25v17-17Z" clip-rule="evenodd"/>
    <path stroke-linejoin="round" stroke-linecap="round" stroke-width="3" stroke="currentColor" d="M17 25v17"
          data-follow-stroke="#515a6e"/>
    <path d="m17.636 27.636 14.142 14.142-14.142-14.142Z" clip-rule="evenodd"/>
    <path stroke-linejoin="round" stroke-linecap="round" stroke-width="3" stroke="currentColor"
          d="m17.636 27.636 14.142 14.142" data-follow-stroke="#515a6e"/>
    <path d="M24 31h18-18Z" clip-rule="evenodd"/>
    <path stroke-linejoin="round" stroke-linecap="round" stroke-width="3" stroke="currentColor" d="M24 31h18"
          data-follow-stroke="#515a6e"/>
    <path d="M42.364 16.636 28.222 30.778l14.142-14.142Z" clip-rule="evenodd"/>
    <path stroke-linejoin="round" stroke-linecap="round" stroke-width="3" stroke="currentColor"
          d="M42.364 16.636 28.222 30.778M24 31a7 7 0 1 0 0-14 7 7 0 0 0 0 14Z" data-follow-stroke="#515a6e"/>
</svg>