<svg class="icon" viewBox="0 0 1024 1024" xmlns="http://www.w3.org/2000/svg"><path d="M328.24 299.45a44.052 44.052 0 0 0-44.08 0l-105.87 61.12a44.079 44.079 0 0 0-22.04 38.18v81.06l85.67 49.46a44.1 44.1 0 0 0 44.08 0l81.74-60.65-6.69-101.51-11.89-55.58-20.92-12.08zm494.57 0a44.052 44.052 0 0 0-44.08 0l-105.87 61.12a44.079 44.079 0 0 0-22.04 38.18v81.06l85.67 49.46a44.1 44.1 0 0 0 44.08 0l105.87-61.12a44.079 44.079 0 0 0 22.04-38.18v-81.06l-85.67-49.46zM357.5 570.03a44.052 44.052 0 0 0-44.08 0l-105.87 61.12a44.079 44.079 0 0 0-22.04 38.18v81.06l85.67 49.46a44.1 44.1 0 0 0 44.08 0l105.87-61.12a44.079 44.079 0 0 0 22.04-38.18V619.5l-85.67-49.47zm228.41 134.08a44.052 44.052 0 0 0-44.08 0l-105.87 61.12a44.079 44.079 0 0 0-22.04 38.18v81.06l85.67 49.46a44.1 44.1 0 0 0 44.08 0l105.87-61.12a44.079 44.079 0 0 0 22.04-38.18v-81.06l-85.67-49.46z" fill="#E9F1FF"/><path d="M822.81 570.03a44.052 44.052 0 0 0-44.08 0l-105.87 61.12a44.079 44.079 0 0 0-22.04 38.18v81.06l85.67 49.46a44.1 44.1 0 0 0 44.08 0l105.87-61.12a44.079 44.079 0 0 0 22.04-38.18V619.5l-85.67-49.47z" fill="#E9F1FF"/><path d="M516.07 689.44c-4.32 0-8.63-1.12-12.5-3.35l-148.33-85.64a25.017 25.017 0 0 1-12.5-21.65V407.53c0-8.93 4.77-17.18 12.5-21.65l33.6-19.4c11.96-6.9 27.25-2.81 34.15 9.15 6.9 11.96 2.81 27.25-9.15 34.15l-21.1 12.18v142.41l123.33 71.2 123.33-71.2V421.96l-22.96-13.26c-11.96-6.9-16.05-22.19-9.15-34.15 6.9-11.96 22.19-16.05 34.15-9.15l35.46 20.47a24.996 24.996 0 0 1 12.5 21.65V578.8c0 8.93-4.76 17.18-12.5 21.65l-148.33 85.64a25.011 25.011 0 0 1-12.5 3.35z" fill="#2C5CCB"/><path d="M514.21 971.68c-4.32 0-8.63-1.12-12.5-3.35l-165.04-95.29a25.017 25.017 0 0 1-12.5-21.65V660.81c0-8.93 4.77-17.18 12.5-21.65l78.45-45.29c11.96-6.9 27.25-2.81 34.15 9.15 6.9 11.96 2.81 27.25-9.15 34.15l-65.95 38.08v161.71l140.04 80.85 140.04-80.85V675.25l-64.79-37.41c-11.96-6.9-16.05-22.19-9.15-34.15 6.9-11.96 22.19-16.05 34.15-9.15l77.29 44.62a24.996 24.996 0 0 1 12.5 21.65v190.58c0 8.93-4.76 17.18-12.5 21.65l-165.04 95.29a25.011 25.011 0 0 1-12.5 3.35z" fill="#2C5CCB"/><path d="M283.7 844.02c-4.32 0-8.63-1.12-12.5-3.35l-166.19-95.95a25.017 25.017 0 0 1-12.5-21.65v-191.9c0-13.81 11.19-25 25-25s25 11.19 25 25v177.47l141.19 81.52 141.19-81.52v-80.26c0-13.81 11.19-25 25-25s25 11.19 25 25v94.69c0 8.93-4.76 17.18-12.5 21.65L296.2 840.67a24.909 24.909 0 0 1-12.5 3.35zm458.6 0c-4.32 0-8.63-1.12-12.5-3.35l-166.19-95.95a24.996 24.996 0 0 1-12.5-21.65v-93.3c0-13.81 11.19-25 25-25s25 11.19 25 25v78.86l141.19 81.52 141.19-81.52V531.17c0-13.81 11.19-25 25-25s25 11.19 25 25v191.9c0 8.93-4.76 17.18-12.5 21.65L754.8 840.67a24.936 24.936 0 0 1-12.5 3.35z" fill="#2C5CCB"/><path d="M760.04 563.53c-4.32 0-8.63-1.12-12.5-3.35l-95.69-55.25c-11.96-6.9-16.05-22.19-9.15-34.15 6.9-11.96 22.19-16.05 34.15-9.15l83.19 48.03 123.45-71.27V295.84l-123.45-71.27-125.37 72.38c-3.77 9.03-12.68 15.39-23.08 15.39-13.81 0-25-11.19-25-25v-5.93c0-8.93 4.76-17.18 12.5-21.65l148.45-85.71a24.98 24.98 0 0 1 25 0l148.45 85.71a24.996 24.996 0 0 1 12.5 21.65v171.41c0 8.93-4.76 17.18-12.5 21.65l-148.45 85.71a25.011 25.011 0 0 1-12.5 3.35zm-496.08 0c-4.32 0-8.63-1.12-12.5-3.35l-148.45-85.71a25.017 25.017 0 0 1-12.5-21.65V281.41c0-8.93 4.77-17.18 12.5-21.65l148.45-85.71a24.98 24.98 0 0 1 25 0l148.45 85.71a24.996 24.996 0 0 1 12.5 21.65v8.33c0 13.81-11.19 25-25 25-11.52 0-21.21-7.79-24.11-18.38l-124.33-71.78-123.45 71.27V438.4l123.45 71.27 89.3-51.56c11.96-6.9 27.25-2.81 34.15 9.15 6.9 11.96 2.81 27.25-9.15 34.15l-101.8 58.77a25.075 25.075 0 0 1-12.51 3.35zm101.8-356.73c-13.81 0-25-11.19-25-25v-18.77c0-8.93 4.77-17.18 12.5-21.65l148.45-85.71a24.98 24.98 0 0 1 25 0l148.45 85.71a24.996 24.996 0 0 1 12.5 21.65v17.99c0 13.81-11.19 25-25 25s-25-11.19-25-25v-3.55L514.21 106.2l-123.45 71.27v4.34c0 13.8-11.19 24.99-25 24.99z" fill="#2C5CCB"/><path d="M514.4 471.84c-3.96 0-7.92-.94-11.53-2.82L302.81 365a24.992 24.992 0 0 1-13.47-21.96 24.981 24.981 0 0 1 13.08-22.19l199.36-108.11a24.992 24.992 0 0 1 23.8-.02l200.05 108.11a24.993 24.993 0 0 1 13.11 22.18c-.07 9.25-5.23 17.7-13.43 21.98L525.96 469.01a24.962 24.962 0 0 1-11.56 2.83zM367.64 342.36l146.73 76.29 146.08-76.22-146.73-79.29-146.08 79.22z" fill="#2C5CCB"/></svg>