<svg viewBox="0 0 48 48" fill="none" xmlns="http://www.w3.org/2000/svg">
    <path data-follow-stroke="#515a6e" data-follow-fill="#515a6e"
          d="M24 44a19.937 19.937 0 0 0 14.142-5.858A19.937 19.937 0 0 0 44 24a19.938 19.938 0 0 0-5.858-14.142A19.937 19.937 0 0 0 24 4 19.938 19.938 0 0 0 9.858 9.858 19.938 19.938 0 0 0 4 24a19.937 19.937 0 0 0 5.858 14.142A19.938 19.938 0 0 0 24 44Z"
          fill="currentColor" stroke="currentColor" stroke-width="3" stroke-linejoin="round"/>
    <path d="m16 24 6 6 12-12" stroke="#FFF" stroke-width="3" stroke-linecap="round" stroke-linejoin="round"/>
</svg>